<?xml version="1.0" standalone="no"?><!DOCTYPE svg PUBLIC "-//W3C//DTD SVG 1.1//EN" "http://www.w3.org/Graphics/SVG/1.1/DTD/svg11.dtd"><svg t="1494147734440" class="icon" style="" viewBox="0 0 1024 1024" version="1.1" xmlns="http://www.w3.org/2000/svg" p-id="10303" xmlns:xlink="http://www.w3.org/1999/xlink" width="64" height="64"><defs><style type="text/css"></style></defs><path d="M933.884 212.525l-142.062 143.78-120.247-121.953 142.992-143.78c-40.438-17.052-82.071-21.143-124.903-12.277-44.826 8.866-83.002 29.329-114.528 61.521-38.442 39.696-59.592 87.304-63.449 142.823-3.725 55.521 10.375 105.311 42.565 149.372l-65.311 54.839-221.606-227.945-0.931-69.024-132.485-83.212-64.381 65.469 80.476 131.628h69.169l219.611 225.772-330.415 283.13c-13.302 13.914-19.82 30.457-19.82 49.281 0 18.962 6.651 35.417 19.82 49.195l23.677 23.643c13.302 13.914 29.396 20.892 48.286 20.892 18.357 0 34.052-6.947 47.354-20.861l290.511-323.292 40.704 42.563-22.746 23.6c-6.252 6.957-9.445 15.142-9.445 24.555s3.192 17.598 9.445 24.554l209.236 216.488c6.917 6.957 15.164 10.367 24.607 10.367s17.293-3.41 23.677-10.367l95.64-98.354c6.917-6.274 10.375-14.187 10.375-23.599 0-9.413-3.458-17.597-10.375-24.554l-210.167-217.442c-6.252-6.274-14.232-9.413-23.677-9.413-8.779 0-16.76 3.138-23.677 9.413l-26.47 26.464-42.565-43.515 60.655-68.070c42.965 24.554 88.324 33.694 136.343 27.419 49.217-6.274 91.515-27.419 126.899-63.295 32.19-32.738 52.409-71.889 60.655-117.315 7.981-44.062 3.591-86.895-13.436-128.501M187.924 896.224c-6.252 6.957-14.232 10.367-23.677 10.367s-17.691-3.411-24.607-10.367c-6.252-6.274-9.445-14.187-9.445-23.599 0-9.413 3.192-17.597 9.445-24.554 6.917-6.957 15.164-10.367 24.607-10.367 9.445 0 17.293 3.411 23.677 10.367 6.917 6.957 10.375 15.142 10.375 24.554s-3.459 17.325-10.375 23.599z" fill="#5491de" p-id="10304"></path></svg>