<?xml version="1.0" standalone="no"?><!DOCTYPE svg PUBLIC "-//W3C//DTD SVG 1.1//EN" "http://www.w3.org/Graphics/SVG/1.1/DTD/svg11.dtd"><svg t="1494159552897" class="icon" style="" viewBox="0 0 1024 1024" version="1.1" xmlns="http://www.w3.org/2000/svg" p-id="14456" xmlns:xlink="http://www.w3.org/1999/xlink" width="32" height="32"><defs><style type="text/css"></style></defs><path d="M894.901377 141.030561c-9.169584 0.315151-18.141821 0.432955-26.952959 0.432955-231.364105 0-333.335077-100.214987-334.209042-101.148357l-23.059385-23.869917L487.453465 40.315159c-0.909206 1.051174-100.854351 101.148357-334.165746 101.148357-8.810131 0-17.748134-0.117804-26.996255-0.432955l-32.464577-1.042113L93.826887 594.473397c0 119.006241 42.035903 292.575888 405.416044 425.383324l11.357517 4.143279 11.348455-4.143279C885.333071 887.049285 927.370988 713.479638 927.370988 594.473397L927.370988 139.988449 894.901377 141.030561 894.901377 141.030561 894.901377 141.030561zM474.877633 712.047866 265.495559 525.49259l55.610553-45.261921 111.335889 82.579622c0 0 153.68795-159.927537 302.139159-234.600192l21.195665 23.983693C755.776824 352.193791 570.253592 506.815112 474.877633 712.047866L474.877633 712.047866 474.877633 712.047866zM474.877633 712.047866" p-id="14457"></path></svg>