<?xml version="1.0" standalone="no"?><!DOCTYPE svg PUBLIC "-//W3C//DTD SVG 1.1//EN" "http://www.w3.org/Graphics/SVG/1.1/DTD/svg11.dtd"><svg t="1494145029973" class="icon" style="" viewBox="0 0 1024 1024" version="1.1" xmlns="http://www.w3.org/2000/svg" p-id="6771" xmlns:xlink="http://www.w3.org/1999/xlink" width="32" height="32"><defs><style type="text/css"></style></defs><path d="M498.735047 1024C343.753966 1024 55.164194 794.528012 55.164194 577.554498V163.230074c0-9.998779 8.498963-18.122788 18.997681-18.372757l25.121933-0.374954c0.999878 0 99.487855-1.999756 200.975467-41.869889C404.496551 61.742463 471.738343 14.623215 472.363266 14.123276l14.873185-10.498718c3.374588-2.37471 7.499085-3.624558 11.498596-3.624558 3.999512 0 7.999024 1.124863 11.373612 3.499573l15.123154 10.498718c0.624924 0.499939 67.866715 47.494202 172.103991 88.364214 101.612596 39.870133 200.100574 41.869889 201.100452 41.869889l24.871964 0.374954c10.498718 0.249969 18.997681 8.373978 18.99768 18.372757L942.55587 577.554498c0 216.973514-288.589772 446.445502-443.820823 446.445502z m375.329184-812.525815c-38.120347-2.874649-118.360552-12.623459-201.725376-45.369461-85.11461-33.370926-147.731966-70.991334-173.603808-87.489321-25.746857 16.497986-88.364213 54.118394-173.478823 87.614305C242.016385 198.850726 162.026149 208.599536 123.405864 211.474185V577.554498c0 170.22922 251.344318 378.203833 375.329183 378.203832 47.994141 0 141.732699-38.74527 233.846455-123.734895C821.320669 750.033443 874.3142 654.920054 874.3142 577.554498l-0.249969-366.080313zM463.23938 647.046015c-6.624191 6.749176-15.373123 9.998779-24.122055 9.998779s-17.497864-3.374588-24.122056-9.998779L312.632765 544.68351c-13.248383-13.373368-13.248383-34.995728 0-48.244111 13.373368-13.373368 34.995728-13.373368 48.244111 0l78.240449 78.24045 197.725863-197.725864c13.373368-13.373368 34.995728-13.373368 48.244111 0 13.373368 13.248383 13.373368 34.870743 0 48.244111L463.23938 647.046015z" fill="" p-id="6772"></path></svg>